<?xml version="1.0" encoding="utf-8"?>
<!-- Generator: Adobe Illustrator 24.3.0, SVG Export Plug-In . SVG Version: 6.00 Build 0)  -->
<svg version="1.1" id="Capa_1" xmlns="http://www.w3.org/2000/svg" xmlns:xlink="http://www.w3.org/1999/xlink" x="0px" y="0px"
	 viewBox="0 0 383 359" style="enable-background:new 0 0 383 359;" xml:space="preserve">
<style type="text/css">
	.st0{fill:#F0F0F0;}
	.st1{fill:none;stroke:#000000;stroke-width:6;stroke-miterlimit:10;}
	.st2{fill:#FCEA66;stroke:#1500BF;stroke-width:2;stroke-miterlimit:10;}
	.st3{fill:#FCEA66;stroke:#0600F4;stroke-width:2;stroke-miterlimit:10;}
	.st4{fill:#FCEA66;stroke:#0B00C9;stroke-width:2;stroke-miterlimit:10;}
</style>
<g>
	<path class="st0" d="M376.4,327.7c0,12.6-10.4,23-23,23h-325c-12.6,0-23-10.4-23-23v-299c0-12.6,10.4-23,23-23h325
		c12.6,0,23,10.4,23,23V327.7z"/>
	<path class="st1" d="M376.4,327.7c0,12.6-10.4,23-23,23h-325c-12.6,0-23-10.4-23-23v-299c0-12.6,10.4-23,23-23h325
		c12.6,0,23,10.4,23,23V327.7z"/>
</g>
<path class="st2" d="M347.6,198.6c-0.8-1.6-2.8-2.4-4.4-2.8c-9.2,0-88.4-3.2-88.4-95.2c0-2.8-2.4-5.2-5.2-5.2s-5.2,2.4-5.2,5.2
	c0,92-79.2,95.2-88,95.2c-1.2,0-2.4,0.4-3.2,1.2c-0.8,0.4-1.2,1.2-1.6,1.6c-0.8,1.6-0.8,3.6,0,5.2c0.8,1.6,2.8,2.8,4.8,2.8
	c0,0,0,0,0.4,0c9.2,0,88,3.2,88,95.2c0,2.8,2.4,5.2,5.2,5.2s5.2-2.4,5.2-5.2c0-91.6,78.8-95.2,88-95.2c2,0,3.6-1.2,4.8-2.8
	C348.8,202.2,348.8,200.2,347.6,198.6z"/>
<path class="st3" d="M183.6,94.6c2.8,0,5.2-2.4,5.2-5.6c0-2.8-2.4-5.2-5.2-5.2c-4.8,0-48-1.6-48-52c0-2.8-2.4-5.2-5.2-5.2
	s-5.2,2.4-5.2,5.2c0,50.4-43.2,52-48,52c-0.4,0-0.4,0-0.4,0C74,84.2,72,86.2,72,89s2.4,5.2,5.2,5.2c5.2,0,48,1.6,48,52
	c0,2.8,2.4,5.2,5.2,5.2c2.4,0.4,4.8-2,4.8-4.8c0-50.4,43.2-52,48-52L183.6,94.6L183.6,94.6z"/>
<path class="st4" d="M137.6,264.2c-4.8,0-48-1.6-48-52c0-2.8-2.4-5.2-5.2-5.2c-2.8,0-5.2,2.4-5.2,5.2c0,50.4-43.2,52-48,52
	c-0.4,0-0.4,0-0.4,0c-2.8,0.4-4.8,2.4-4.8,5.2s2.4,5.2,5.2,5.2c5.2,0,48,1.6,48,52c0,2.8,2.4,5.2,5.2,5.2c2.4,0.8,4.8-1.6,4.8-4.8
	c0-50.4,43.2-52,48-52h0.4c2.8,0,5.2-2.4,5.2-5.6C142.8,266.6,140.4,264.2,137.6,264.2z"/>
</svg>
