<?xml version="1.0" encoding="utf-8"?>
<!-- Generator: Adobe Illustrator 24.3.0, SVG Export Plug-In . SVG Version: 6.00 Build 0)  -->
<svg version="1.1" id="Layer_1" xmlns="http://www.w3.org/2000/svg" xmlns:xlink="http://www.w3.org/1999/xlink" x="0px" y="0px"
	 viewBox="0 0 609 602" style="enable-background:new 0 0 609 602;" xml:space="preserve">
<style type="text/css">
	.st0{fill:#F0F0F0;}
	.st1{fill:none;stroke:#000000;stroke-width:6;stroke-miterlimit:10;}
	.st2{fill:#FCEA66;stroke:#0D00F4;stroke-width:2;stroke-miterlimit:10;}
</style>
<g>
	<path class="st0" d="M578.5,551.4c0,12.7-10.3,23-23,23h-502c-12.7,0-23-10.3-23-23V66.6c0-12.7,10.4-23,23-23h502
		c12.7,0,23,10.3,23,23V551.4z"/>
	<path class="st1" d="M578.5,551.4c0,12.7-10.3,23-23,23h-502c-12.7,0-23-10.3-23-23V66.6c0-12.7,10.4-23,23-23h502
		c12.7,0,23,10.3,23,23V551.4z"/>
</g>
<g>
	<path id="XMLID_389_" class="st2" d="M549.2,332.7c-4.6-46.2-25.3-89.8-58.2-122.7c-28.1-28.1-62.6-46.2-98.8-54.2v-25.4
		c14.8-3.7,25.8-17.1,25.8-33c0-18.7-15.3-34-34-34h-72c-18.7,0-34,15.3-34,34c0,15.9,11,29.3,25.8,33v25.5
		c-36.1,8.1-70.4,26.1-98.5,54.2c-6.1,6.1-11.8,12.6-17,19.3c-0.3,0-0.5,0-0.8,0h-71.3c-5.5,0-10,4.5-10,10c0,5.5,4.5,10,10,10h58.4
		c-7.3,12.3-13.2,25.2-17.7,38.4H48.2c-5.5,0-10,4.5-10,10c0,5.5,4.5,10,10,10h103.2c-2.9,12.7-4.5,25.5-5,38.4h-44.2
		c-5.5,0-10,4.5-10,10s4.5,10,10,10h44.5c0.8,12.9,2.9,25.8,6.2,38.4H88.2c-5.5,0-10,4.5-10,10s4.5,10,10,10h71.2
		c9.8,26,25.1,50.3,46,71.1c32.9,32.9,76.6,53.6,122.9,58.2c6.6,0.7,13.2,1,19.8,1c39,0,77.5-11.3,110.2-32.6
		c4.6-3,5.9-9.2,2.9-13.8c-3-4.6-9.2-5.9-13.8-2.9c-71.6,46.6-167.4,36.5-227.9-24c-71-71-71-186.4,0-257.4c71-71,186.4-71,257.4,0
		c60.4,60.4,70.5,156.2,24.1,227.7c-3,4.6-1.7,10.8,2.9,13.8c4.6,3,10.8,1.7,13.8-2.9C542.6,424.4,553.7,378.2,549.2,332.7z
		 M298.1,97.3c0-7.7,6.3-14,14-14h72c7.7,0,14,6.3,14,14s-6.3,14-14,14h-1.8h-68.4h-1.8C304.3,111.3,298.1,105,298.1,97.3z
		 M323.8,152.3v-21h48.4v21C356.2,150.3,339.9,150.4,323.8,152.3z"/>
	<path id="XMLID_391_" class="st2" d="M484,478.5c-2.6,0-5.2,1.1-7.1,2.9c-1.9,1.9-2.9,4.4-2.9,7.1s1.1,5.2,2.9,7.1
		c1.9,1.9,4.4,2.9,7.1,2.9c2.6,0,5.2-1.1,7.1-2.9c1.9-1.9,2.9-4.4,2.9-7.1s-1.1-5.2-2.9-7.1C489.2,479.6,486.6,478.5,484,478.5z"/>
	<path id="XMLID_394_" class="st2" d="M348.2,197.6c-85.5,0-155.1,69.6-155.1,155.1s69.6,155.1,155.1,155.1s155.1-69.6,155.1-155.1
		S433.7,197.6,348.2,197.6z M348.2,487.9c-74.5,0-135.1-60.6-135.1-135.1s60.6-135.1,135.1-135.1s135.1,60.6,135.1,135.1
		S422.7,487.9,348.2,487.9z"/>
	<path id="XMLID_397_" class="st2" d="M411.5,275.3l-49.5,49.5c-4.1-2-8.8-3.2-13.7-3.2c-4.9,0-9.6,1.2-13.7,3.2l-22.2-22.2
		c-3.9-3.9-10.2-3.9-14.1,0c-3.9,3.9-3.9,10.2,0,14.1l22.2,22.2c-2,4.1-3.2,8.8-3.2,13.7c0,17.1,13.9,31.1,31.1,31.1
		c17.1,0,31.1-13.9,31.1-31.1c0-4.9-1.2-9.6-3.2-13.7l48.1-48.1l0,0l1.5-1.5c3.9-3.9,3.9-10.2,0-14.1S415.4,271.4,411.5,275.3z
		 M348.2,363.8c-6.1,0-11.1-5-11.1-11.1c0-6.1,5-11.1,11.1-11.1c6.1,0,11.1,5,11.1,11.1C359.3,358.8,354.3,363.8,348.2,363.8z"/>
	<path id="XMLID_398_" class="st2" d="M455.1,342.9h-9.3c-5.5,0-10,4.5-10,10c0,5.5,4.5,10,10,10h9.3c5.5,0,10-4.5,10-10
		C465.1,347.3,460.6,342.9,455.1,342.9z"/>
	<path id="XMLID_399_" class="st2" d="M250.5,342.6h-9.3c-5.5,0-10,4.5-10,10s4.5,10,10,10h9.3c5.5,0,10-4.5,10-10
		S256.1,342.6,250.5,342.6z"/>
	<path id="XMLID_400_" class="st2" d="M348.3,265.1c5.5,0,10-4.5,10-10v-9.3c0-5.5-4.5-10-10-10c-5.5,0-10,4.5-10,10v9.3
		C338.3,260.6,342.8,265.1,348.3,265.1z"/>
	<path id="XMLID_424_" class="st2" d="M348.1,440.4c-5.5,0-10,4.5-10,10v9.3c0,5.5,4.5,10,10,10c5.5,0,10-4.5,10-10v-9.3
		C358.1,444.9,353.6,440.4,348.1,440.4z"/>
	<path id="XMLID_425_" class="st2" d="M48.2,404.4c-2.6,0-5.2,1.1-7.1,2.9c-1.9,1.9-2.9,4.4-2.9,7.1c0,2.6,1.1,5.2,2.9,7.1
		c1.9,1.9,4.4,2.9,7.1,2.9c2.6,0,5.2-1.1,7.1-2.9c1.9-1.9,2.9-4.4,2.9-7.1s-1.1-5.2-2.9-7.1C53.4,405.5,50.8,404.4,48.2,404.4z"/>
</g>
</svg>
