<?xml version="1.0" encoding="utf-8"?>
<!-- Generator: Adobe Illustrator 24.3.0, SVG Export Plug-In . SVG Version: 6.00 Build 0)  -->
<svg version="1.1" id="Слой_1" xmlns="http://www.w3.org/2000/svg" xmlns:xlink="http://www.w3.org/1999/xlink" x="0px" y="0px"
	 viewBox="0 0 1352 455" style="enable-background:new 0 0 1352 455;" xml:space="preserve">
<style type="text/css">
	.st0{fill:#3433FF;stroke:#FCE434;stroke-width:11;stroke-miterlimit:10;}
	.st1{enable-background:new    ;}
	.st2{fill:#FCE434;stroke:#FCE434;stroke-miterlimit:10;}
	.st3{fill:#FCE434;}
</style>
<g>
	<ellipse class="st0" cx="678" cy="229.5" rx="661" ry="216.5"/>
	<g class="st1">
		<path class="st2" d="M302.8,193.3l26.8,8.5c-4.1,15-10.9,26.1-20.5,33.3c-9.5,7.3-21.7,10.9-36.3,10.9c-18.2,0-33.1-6.2-44.8-18.7
			c-11.7-12.4-17.5-29.4-17.5-51c0-22.8,5.9-40.5,17.6-53.2c11.8-12.6,27.2-18.9,46.4-18.9c16.7,0,30.3,5,40.8,14.9
			c6.2,5.9,10.9,14.3,14,25.3l-27.3,6.5c-1.6-7.1-5-12.7-10.1-16.8s-11.4-6.2-18.7-6.2c-10.1,0-18.4,3.6-24.7,10.9
			c-6.3,7.3-9.5,19.1-9.5,35.4c0,17.3,3.1,29.7,9.3,37c6.2,7.4,14.3,11,24.2,11c7.3,0,13.6-2.3,18.9-7
			C296.7,210.7,300.5,203.3,302.8,193.3z"/>
		<path class="st2" d="M347,192.7c0-8.7,2.1-17.2,6.4-25.3c4.3-8.2,10.4-14.4,18.2-18.7c7.9-4.3,16.6-6.5,26.3-6.5
			c15,0,27.3,4.9,36.8,14.6c9.6,9.8,14.4,22.1,14.4,37c0,15-4.8,27.5-14.5,37.4c-9.7,9.9-21.8,14.8-36.5,14.8
			c-9.1,0-17.7-2.1-26-6.2c-8.2-4.1-14.5-10.1-18.8-18.1S347,204.1,347,192.7z M373.9,194.1c0,9.9,2.3,17.4,7,22.6
			s10.4,7.9,17.3,7.9c6.8,0,12.6-2.6,17.2-7.9c4.6-5.2,6.9-12.8,6.9-22.8c0-9.7-2.3-17.2-6.9-22.4s-10.4-7.9-17.2-7.9
			c-6.8,0-12.6,2.6-17.3,7.9S373.9,184.2,373.9,194.1z"/>
		<path class="st2" d="M559.9,243.7h-26.2V193c0-10.7-0.6-17.7-1.7-20.8c-1.1-3.1-2.9-5.6-5.5-7.3c-2.5-1.7-5.5-2.6-9.1-2.6
			c-4.5,0-8.6,1.2-12.2,3.7s-6.1,5.8-7.4,9.9c-1.3,4.1-2,11.7-2,22.8v45h-26.2v-99.3h24.3V159c8.6-11.2,19.5-16.8,32.6-16.8
			c5.8,0,11.1,1,15.9,3.1s8.4,4.8,10.9,8s4.2,6.9,5.1,11c1,4.1,1.4,10,1.4,17.7v61.7H559.9z"/>
		<path class="st2" d="M677.3,243.7H653v-14.6c-4,5.7-8.8,9.9-14.3,12.7S627.6,246,622,246c-11.4,0-21.1-4.6-29.2-13.8
			c-8.1-9.2-12.2-22-12.2-38.5c0-16.8,3.9-29.6,11.8-38.4c7.9-8.8,17.9-13.1,29.9-13.1c11.1,0,20.6,4.6,28.7,13.8v-49.4h26.2
			L677.3,243.7L677.3,243.7z M607.4,191.9c0,10.6,1.5,18.3,4.4,23c4.2,6.9,10.1,10.3,17.7,10.3c6,0,11.2-2.6,15.4-7.7
			c4.2-5.1,6.3-12.8,6.3-23.1c0-11.4-2.1-19.6-6.2-24.6c-4.1-5-9.4-7.5-15.8-7.5c-6.2,0-11.4,2.5-15.6,7.4
			C609.5,174.6,607.4,182.1,607.4,191.9z"/>
		<path class="st2" d="M703.1,130.9v-24.3h26.2v24.3C729.3,130.9,703.1,130.9,703.1,130.9z M703.1,243.7v-99.3h26.2v99.3H703.1z"/>
		<path class="st2" d="M843.9,193.3l26.8,8.5c-4.1,15-10.9,26.1-20.5,33.3c-9.5,7.3-21.7,10.9-36.3,10.9c-18.2,0-33.1-6.2-44.8-18.7
			c-11.7-12.4-17.5-29.4-17.5-51c0-22.8,5.9-40.5,17.6-53.2c11.8-12.6,27.2-18.9,46.4-18.9c16.7,0,30.3,5,40.8,14.9
			c6.2,5.9,10.9,14.3,14,25.3l-27.3,6.5c-1.6-7.1-5-12.7-10.1-16.8s-11.4-6.2-18.7-6.2c-10.1,0-18.4,3.6-24.7,10.9
			c-6.3,7.3-9.5,19.1-9.5,35.4c0,17.3,3.1,29.7,9.3,37c6.2,7.4,14.3,11,24.2,11c7.3,0,13.6-2.3,18.9-7
			C837.8,210.7,841.6,203.3,843.9,193.3z"/>
		<path class="st2" d="M913.7,174.7l-23.8-4.3c2.7-9.6,7.3-16.7,13.8-21.3s16.2-6.9,29.1-6.9c11.7,0,20.4,1.4,26.1,4.2
			c5.7,2.8,9.7,6.3,12.1,10.6c2.3,4.3,3.5,12.1,3.5,23.5l-0.3,30.7c0,8.7,0.4,15.2,1.3,19.3c0.8,4.1,2.4,8.6,4.7,13.3h-25.9
			c-0.7-1.7-1.5-4.3-2.5-7.8c-0.4-1.6-0.7-2.6-0.9-3.1c-4.5,4.4-9.3,7.6-14.4,9.8c-5.1,2.2-10.5,3.3-16.3,3.3
			c-10.2,0-18.2-2.8-24.1-8.3c-5.9-5.5-8.8-12.6-8.8-21c0-5.6,1.3-10.6,4-15s6.4-7.8,11.2-10.1s11.8-4.4,20.8-6.1
			c12.2-2.3,20.7-4.5,25.5-6.5v-2.6c0-5.1-1.2-8.7-3.7-10.8c-2.5-2.2-7.2-3.2-14.1-3.2c-4.7,0-8.3,0.9-10.9,2.8
			C917.5,166.9,915.4,170.1,913.7,174.7z M948.8,196c-3.4,1.1-8.7,2.5-15.9,4c-7.3,1.6-12,3.1-14.3,4.6c-3.4,2.4-5.1,5.5-5.1,9.3
			c0,3.7,1.4,6.9,4.1,9.5c2.7,2.7,6.2,4,10.4,4c4.7,0,9.2-1.6,13.5-4.7c3.2-2.4,5.3-5.3,6.2-8.7c0.7-2.2,1-6.5,1-12.8L948.8,196
			L948.8,196z"/>
		<path class="st2" d="M998.4,144.4h24.2V158c8.6-10.5,18.9-15.8,30.9-15.8c6.3,0,11.8,1.3,16.5,3.9c4.7,2.6,8.5,6.6,11.5,11.9
			c4.4-5.3,9-9.3,14.1-11.9c5-2.6,10.4-3.9,16.1-3.9c7.3,0,13.4,1.5,18.5,4.4c5,3,8.8,7.3,11.3,13c1.8,4.2,2.7,11.1,2.7,20.6v63.5
			H1118v-56.8c0-9.9-0.9-16.2-2.7-19.1c-2.4-3.7-6.2-5.6-11.2-5.6c-3.7,0-7.1,1.1-10.4,3.4c-3.2,2.2-5.6,5.5-7,9.9
			c-1.4,4.3-2.1,11.2-2.1,20.5v47.7h-26.2v-54.4c0-9.7-0.5-15.9-1.4-18.7s-2.4-4.9-4.3-6.3c-2-1.4-4.6-2.1-8-2.1
			c-4,0-7.7,1.1-10.9,3.3s-5.5,5.3-6.9,9.4s-2.1,10.9-2.1,20.5v48.3h-26.2v-99.3H998.4z"/>
	</g>
	<g>
		<path class="st2" d="M1144,257c0,3.3-4.9,6-11,6H221c-6.1,0-11-2.7-11-6c0-3.3,4.9-6,11-6h912C1139.1,251,1144,253.7,1144,257z"/>
	</g>
	<g>
		<path class="st2" d="M1256,221.9c-0.4,0-0.9-0.1-1.3-0.2l-94.3-25.4c-2.7-0.7-4.3-3.5-3.6-6.2l4.4-16.5c0.3-1,1.3-1.6,2.4-1.4l0,0
			l100.4,27.1c1,0.3,1.6,1.3,1.4,2.4l-4.4,16.5C1260.3,220.4,1258.3,221.9,1256,221.9L1256,221.9z M1164.4,176.5l-3.9,14.6
			c-0.2,0.6,0.2,1.3,0.8,1.5l94.3,25.4c0.6,0.2,1.3-0.2,1.5-0.8l3.9-14.6L1164.4,176.5z"/>
		<path class="st2" d="M1268,218.3c-0.4,0-0.9-0.1-1.3-0.2l-7.3-2c-1-0.3-1.6-1.3-1.4-2.4l0,0l3.5-13.1c0.1-0.2,0.1-0.4,0.3-0.6
			l14.2-20.9c0.5-0.7,1.3-1,2.1-0.8l5.1,1.4c2.7,0.7,4.3,3.5,3.6,6.2c-0.1,0.3-0.2,0.6-0.3,0.9l-13.9,28.5
			C1271.7,217.2,1269.9,218.3,1268,218.3L1268,218.3z M1262.3,212.9l5.4,1.5c0.6,0.1,1.1-0.1,1.4-0.6l13.9-28.5
			c0.3-0.6,0-1.3-0.5-1.6c-0.1,0-0.1-0.1-0.2-0.1l-3.8-1l-13.2,19.5L1262.3,212.9z"/>
		<path class="st2" d="M1263.4,203.1c-0.2,0-0.3,0-0.5-0.1l-105.5-28.4c-2.7-0.7-4.3-3.5-3.6-6.2l6.7-24.8c0.7-2.7,3.5-4.3,6.2-3.6
			l0,0l111.9,30.2c2.7,0.7,4.3,3.5,3.6,6.2c-0.1,0.5-0.4,1.1-0.7,1.5l-16.5,24.4C1264.7,202.8,1264.1,203.1,1263.4,203.1z
			 M1165.5,143.7c-0.5,0-1,0.4-1.2,0.9l-6.7,24.8c-0.2,0.6,0.2,1.3,0.8,1.5l0,0l104.1,28.1l15.7-23.2c0.4-0.6,0.2-1.3-0.3-1.7
			c-0.1-0.1-0.2-0.1-0.4-0.2L1165.5,143.7C1165.7,143.7,1165.6,143.7,1165.5,143.7L1165.5,143.7z"/>
		<path class="st2" d="M1217.6,222.3c-0.2,0-0.3,0-0.5-0.1l-23.2-6.3c-1-0.3-1.6-1.3-1.4-2.3l2.3-10.1c0.2-1,1.3-1.7,2.3-1.4
			c0,0,0,0,0.1,0l23.3,6.3c1,0.3,1.6,1.3,1.4,2.3l-2.4,10C1219.3,221.7,1218.5,222.4,1217.6,222.3L1217.6,222.3z M1196.6,212.8
			l19.5,5.3l1.5-6.3l-19.5-5.3L1196.6,212.8z"/>
		<path class="st2" d="M1199.6,249.9H1171c-1.1,0-1.9-0.9-1.9-1.9v-7.8c0-1.1,0.9-1.9,1.9-1.9h28.6c0.2,0,0.3-0.1,0.3-0.3v-21.8
			c0-1.1,0.9-1.9,1.9-1.9c0.2,0,0.3,0,0.5,0.1l7.8,2.1c0.8,0.2,1.4,1,1.4,1.9V238C1211.6,244.5,1206.2,249.9,1199.6,249.9
			L1199.6,249.9z M1173,246h26.6c4.5,0,8.1-3.6,8.1-8.1v-18.2l-3.9-1V238c0,2.3-1.9,4.2-4.2,4.2H1173V246z"/>
		<path class="st2" d="M1159.3,266.7c-1.1,0-1.9-0.9-1.9-1.9v-41.4c0-1.1,0.9-1.9,1.9-1.9c7.5,0,13.7,6.1,13.7,13.7V253
			C1173,260.6,1166.9,266.7,1159.3,266.7z M1161.3,225.5v37.1c4.6-0.9,7.9-4.9,7.9-9.6v-17.9
			C1169.1,230.5,1165.8,226.4,1161.3,225.5z"/>
	</g>
	<g>
		<path class="st2" d="M98.2,221.4c-2.3,0-4.3-1.5-4.9-3.8l-4.4-16.5c-0.3-1,0.3-2.1,1.4-2.4l100.4-27.1l0,0c1-0.3,2.1,0.3,2.4,1.4
			l4.4,16.5c0.7,2.7-0.9,5.5-3.6,6.2l-94.3,25.4C99.1,221.4,98.7,221.4,98.2,221.4L98.2,221.4z M93.1,202.1l3.9,14.6
			c0.2,0.6,0.8,1,1.5,0.8l94.3-25.4c0.6-0.2,1-0.8,0.8-1.5l-3.9-14.6L93.1,202.1z"/>
		<path class="st2" d="M86.2,217.8c-1.9,0-3.7-1.1-4.6-2.8l-13.9-28.5c-0.1-0.3-0.3-0.6-0.3-0.9c-0.7-2.7,0.9-5.5,3.6-6.2l5.1-1.4
			c0.8-0.2,1.6,0.1,2.1,0.8l14.2,20.9c0.1,0.2,0.2,0.4,0.3,0.6l3.5,13.1l0,0c0.3,1-0.3,2.1-1.4,2.4l-7.3,2
			C87.1,217.7,86.6,217.8,86.2,217.8L86.2,217.8z M89,201.5L75.8,182l-3.8,1c-0.1,0-0.2,0-0.2,0.1c-0.6,0.3-0.8,1-0.5,1.6l13.9,28.5
			c0.3,0.5,0.8,0.8,1.4,0.6l5.4-1.5L89,201.5z"/>
		<path class="st2" d="M89.2,201.8l-16.5-24.4c-0.3-0.5-0.6-1-0.7-1.5c-0.7-2.7,0.9-5.5,3.6-6.2l111.9-30.2l0,0
			c2.7-0.7,5.5,0.9,6.2,3.6l6.7,24.8c0.7,2.7-0.9,5.5-3.6,6.2L91.3,202.6c-0.2,0-0.3,0.1-0.5,0.1C90.1,202.6,89.5,202.3,89.2,201.8z
			 M188.7,143.2c-0.1,0-0.2,0-0.3,0L76.5,173.4c-0.1,0-0.2,0.1-0.4,0.2c-0.6,0.4-0.7,1.1-0.3,1.7l15.7,23.2l104.1-28.1l0,0
			c0.6-0.2,1-0.8,0.8-1.5l-6.7-24.8C189.7,143.6,189.3,143.2,188.7,143.2L188.7,143.2z"/>
		<path class="st2" d="M136.6,221.9c-0.9,0-1.7-0.6-1.9-1.5l-2.4-10c-0.2-1,0.4-2,1.4-2.3l23.3-6.3c0,0,0,0,0.1,0
			c1-0.2,2.1,0.4,2.3,1.4l2.3,10.1c0.2,1-0.4,2-1.4,2.3l-23.2,6.3C137,221.9,136.8,221.9,136.6,221.9L136.6,221.9z M156.1,206
			l-19.5,5.3l1.5,6.3l19.5-5.3L156.1,206z"/>
		<path class="st2" d="M154.5,249.4c-6.6,0-11.9-5.4-11.9-11.9v-19.7c0-0.9,0.6-1.6,1.4-1.9l7.8-2.1c0.2,0,0.3-0.1,0.5-0.1
			c1.1,0,1.9,0.9,1.9,1.9v21.8c0,0.2,0.1,0.3,0.3,0.3h28.6c1.1,0,1.9,0.9,1.9,1.9v7.8c0,1.1-0.9,1.9-1.9,1.9L154.5,249.4
			L154.5,249.4z M181.2,241.7h-26.6c-2.3,0-4.2-1.9-4.2-4.2v-19.2l-3.9,1v18.2c0,4.5,3.6,8.1,8.1,8.1h26.6L181.2,241.7L181.2,241.7z
			"/>
		<path class="st2" d="M181.2,252.6v-17.9c0-7.5,6.1-13.7,13.7-13.7c1.1,0,1.9,0.9,1.9,1.9v41.4c0,1.1-0.9,1.9-1.9,1.9
			C187.3,266.2,181.2,260.1,181.2,252.6z M185.1,234.7v17.9c0,4.7,3.3,8.7,7.9,9.6V225C188.4,226,185.1,230,185.1,234.7z"/>
	</g>
	<g>
		<circle class="st2" cx="686.7" cy="297.2" r="3.1"/>
		<circle class="st2" cx="668.1" cy="297.2" r="3.1"/>
		<path class="st2" d="M696,350.1c-1.7,0-3.1,1.4-3.1,3.1v51.3c0,9.4,7.7,17.1,17.1,17.1s17.1-7.7,17.1-17.1c0-4.6-1.8-8.9-5-12.1
			c-1.2-1.2-3.2-1.2-4.4,0s-1.2,3.2,0,4.4c2.1,2.1,3.2,4.8,3.2,7.7c0,6-4.9,10.9-10.9,10.9s-10.9-4.9-10.9-10.9v-51.3
			C699.2,351.5,697.8,350.1,696,350.1z"/>
		<path class="st2" d="M637,392.4c-1.2-1.2-3.2-1.2-4.4,0c-3.2,3.2-5,7.5-5,12.1c0,9.4,7.7,17.1,17.1,17.1c9.4,0,17.1-7.7,17.1-17.1
			v-51.3c0-1.7-1.4-3.1-3.1-3.1s-3.1,1.4-3.1,3.1v51.3c0,6-4.9,10.9-10.9,10.9s-10.9-4.9-10.9-10.9c0-2.9,1.1-5.6,3.2-7.7
			C638.2,395.6,638.2,393.6,637,392.4z"/>
		<path class="st2" d="M640.1,350.1c-1.7,0-3.1,1.4-3.1,3.1v18.7c0,3.4-2.8,6.2-6.2,6.2s-6.2-2.8-6.2-6.2c0-1.7-1.4-3.1-3.1-3.1
			s-3.1,1.4-3.1,3.1c0,6.9,5.6,12.4,12.4,12.4c6.9,0,12.4-5.6,12.4-12.4v-18.7C643.2,351.5,641.8,350.1,640.1,350.1z"/>
		<path class="st2" d="M714.7,350.1c-1.7,0-3.1,1.4-3.1,3.1v18.7c0,6.9,5.6,12.4,12.4,12.4c6.9,0,12.4-5.6,12.4-12.4
			c0-1.7-1.4-3.1-3.1-3.1c-1.7,0-3.1,1.4-3.1,3.1c0,3.4-2.8,6.2-6.2,6.2s-6.2-2.8-6.2-6.2v-18.7
			C717.8,351.5,716.4,350.1,714.7,350.1z"/>
		<path class="st2" d="M674.3,390.5c0,1.7,1.4,3.1,3.1,3.1s3.1-1.4,3.1-3.1v-37.3c0-1.7-1.4-3.1-3.1-3.1s-3.1,1.4-3.1,3.1V390.5z"/>
		<circle class="st2" cx="677.4" cy="334.6" r="3.1"/>
		<path class="st2" d="M744.6,275.5H610.2c-6.9,0-12.4,5.6-12.4,12.4v46.7c0,1.7,1.4,3.1,3.1,3.1h62.5c1.7,0,3.1-1.4,3.1-3.1
			s-1.4-3.1-3.1-3.1h-40.7V319h109.5v12.4h-40.7c-1.7,0-3.1,1.4-3.1,3.1s1.4,3.1,3.1,3.1H754c1.7,0,3.1-1.4,3.1-3.1v-46.7
			C757,281,751.4,275.5,744.6,275.5z M750.8,331.4h-12.4v-15.6c0-1.7-1.4-3.1-3.1-3.1H619.5c-1.7,0-3.1,1.4-3.1,3.1v15.6H604v-43.5
			c0-3.4,2.8-6.2,6.2-6.2h134.4c3.4,0,6.2,2.8,6.2,6.2V331.4z"/>
	</g>
	<g>
		<g>
			<path class="st3" d="M100.4,175.6c1.9,0,1.9-3,0-3S98.4,175.6,100.4,175.6L100.4,175.6z"/>
		</g>
	</g>
</g>
</svg>
