<?xml version="1.0" encoding="utf-8"?>
<!-- Generator: Adobe Illustrator 24.3.0, SVG Export Plug-In . SVG Version: 6.00 Build 0)  -->
<svg version="1.1" id="Capa_1" xmlns="http://www.w3.org/2000/svg" xmlns:xlink="http://www.w3.org/1999/xlink" x="0px" y="0px"
	 viewBox="0 0 571 556.8" style="enable-background:new 0 0 571 556.8;" xml:space="preserve">
<style type="text/css">
	.st0{fill:#F0F0F0;}
	.st1{fill:none;stroke:#000000;stroke-width:6;stroke-miterlimit:10;}
	.st2{fill:#FCEA66;stroke:#1900B4;stroke-width:2;stroke-miterlimit:10;}
	.st3{fill:#FCEA66;stroke:#0500D4;stroke-width:2;stroke-miterlimit:10;}
	.st4{fill:#FCEA66;stroke:#2B00DF;stroke-width:2;stroke-miterlimit:10;}
	.st5{fill:#FCEA66;stroke:#1500FF;stroke-width:2;stroke-miterlimit:10;}
</style>
<g>
	<path class="st0" d="M562,524c0,12.7-10.3,23-23,23H31c-12.6,0-23-10.3-23-23V33c0-12.6,10.4-23,23-23h508c12.7,0,23,10.4,23,23
		V524z"/>
	<path class="st1" d="M562,524c0,12.7-10.3,23-23,23H31c-12.6,0-23-10.3-23-23V33c0-12.6,10.4-23,23-23h508c12.7,0,23,10.4,23,23
		V524z"/>
</g>
<g>
	<g>
		<path class="st2" d="M200.6,411.9c-0.1-0.6-0.3-1.3-0.6-1.9c-0.3-0.6-0.6-1.2-0.9-1.7c-0.4-0.5-0.8-1.1-1.2-1.5s-1-0.9-1.5-1.2
			c-0.5-0.4-1.1-0.7-1.7-0.9c-0.6-0.3-1.2-0.5-1.9-0.6c-1.3-0.3-2.6-0.3-3.9,0c-0.6,0.1-1.3,0.3-1.9,0.6c-0.6,0.3-1.2,0.6-1.7,0.9
			c-0.6,0.4-1.1,0.8-1.5,1.2s-0.9,1-1.2,1.5c-0.4,0.5-0.7,1.1-0.9,1.7c-0.3,0.6-0.4,1.2-0.6,1.9c-0.1,0.6-0.2,1.3-0.2,2
			c0,0.6,0.1,1.3,0.2,2c0.1,0.6,0.3,1.3,0.6,1.9c0.3,0.6,0.6,1.2,0.9,1.7c0.4,0.5,0.8,1.1,1.2,1.5s1,0.9,1.5,1.2
			c0.5,0.4,1.1,0.7,1.7,0.9c0.6,0.3,1.2,0.5,1.9,0.6c0.6,0.1,1.3,0.2,1.9,0.2s1.3-0.1,1.9-0.2c0.6-0.1,1.3-0.3,1.9-0.6
			c0.6-0.3,1.2-0.6,1.7-0.9c0.6-0.4,1.1-0.8,1.5-1.2s0.9-1,1.2-1.5c0.4-0.5,0.7-1.1,0.9-1.7c0.3-0.6,0.4-1.2,0.6-1.9s0.2-1.3,0.2-2
			S200.7,412.5,200.6,411.9z"/>
	</g>
</g>
<g>
	<g>
		<path class="st3" d="M488,415c0-0.1-0.1-0.2-0.1-0.3c-9.2-21.5-30.8-29.5-56.3-20.8l-69.7,19.3c-4-12.2-14.1-22.6-28.3-27.9
			c-0.1,0-0.2-0.1-0.3-0.1l-76.6-26c-6.4-8.2-26.3-29.3-63.7-29.3c-26.1,0-49.2,17.9-62.5,37.5H38c-5.5,0-10,4.5-10,10v126.1
			c0,5.5,4.5,10,10,10h59.5c5.5,0,10-4.5,10-10v-8.6h27.9c5.5,0,10-4.5,10-10v-2.9c16.3,1.4,21.6,4.5,36.5,13.1
			c11.5,6.6,28.8,16.6,60.1,30.7c0.1,0.1,0.3,0.1,0.4,0.2c6,2.4,17.7,6.1,32.2,6.1c10.1,0,21.4-1.8,33.1-7.1l154-55.1
			c0.3-0.1,0.5-0.2,0.8-0.3C477.2,462.6,499.1,443.6,488,415z M87.5,493.5H48V387.4h39.5V493.5z M125.3,474.8h-17.9v-87.4h17.9
			V474.8z M454.5,451.1l-153.9,55.1c-0.1,0-0.3,0.1-0.5,0.2c-0.1,0.1-0.3,0.1-0.4,0.2c-21.4,9.9-41.8,4-49.8,0.8
			c-30.2-13.6-46.3-22.9-58.1-29.7c-16.4-9.4-24.2-14-46.5-15.8v-80.5c9.5-15.5,27.9-31.4,47.7-31.4c34,0,48.4,22.1,49,23
			c1.2,2,3.1,3.5,5.3,4.2l79.5,27c12.7,4.8,19.4,15.6,16.3,26.5c-1.4,5-4.7,9.2-9.3,11.7c-4.5,2.5-9.7,3.1-14.7,1.8l-89.6-28.4
			c-5.3-1.7-10.9,1.2-12.6,6.5c-1.7,5.3,1.2,10.9,6.5,12.6l89.7,28.4c0.1,0,0.2,0.1,0.3,0.1c3.6,1,7.2,1.5,10.9,1.5
			c6.6,0,13.2-1.7,19.2-5c9.2-5.1,15.9-13.5,18.8-23.7c0.2-0.8,0.4-1.6,0.6-2.4l75.1-20.8c10.8-3.7,25.1-5,31.4,9.6
			C476,439.5,458.9,449,454.5,451.1z"/>
	</g>
</g>
<g>
	<g>
		<path class="st4" d="M387.1,151.5c-0.1-0.6-0.3-1.3-0.6-1.9c-0.3-0.6-0.5-1.2-0.9-1.7c-0.4-0.6-0.8-1.1-1.2-1.5
			c-0.5-0.5-1-0.9-1.5-1.2c-0.5-0.4-1.1-0.7-1.7-0.9c-0.6-0.3-1.2-0.4-1.9-0.6c-1.3-0.3-2.6-0.3-3.9,0c-0.6,0.1-1.3,0.3-1.9,0.6
			c-0.6,0.3-1.2,0.6-1.7,0.9c-0.5,0.4-1.1,0.8-1.5,1.2c-0.5,0.5-0.9,1-1.2,1.5c-0.4,0.5-0.7,1.1-0.9,1.7c-0.3,0.6-0.5,1.2-0.6,1.9
			c-0.1,0.6-0.2,1.3-0.2,1.9s0.1,1.3,0.2,1.9c0.1,0.6,0.3,1.3,0.6,1.9c0.3,0.6,0.6,1.2,0.9,1.7c0.4,0.6,0.8,1.1,1.2,1.5
			s1,0.9,1.5,1.2c0.5,0.4,1.1,0.7,1.7,0.9c0.6,0.3,1.2,0.4,1.9,0.6s1.3,0.2,2,0.2c0.6,0,1.3-0.1,2-0.2c0.6-0.1,1.3-0.3,1.9-0.6
			c0.6-0.3,1.2-0.6,1.7-0.9c0.5-0.4,1.1-0.8,1.5-1.2s0.9-1,1.2-1.5c0.4-0.5,0.7-1.1,0.9-1.7c0.3-0.6,0.5-1.2,0.6-1.9
			c0.1-0.6,0.2-1.3,0.2-1.9S387.2,152.2,387.1,151.5z"/>
	</g>
</g>
<g>
	<g>
		<path class="st5" d="M530,53.9h-59.5c-5.5,0-10,4.5-10,10v8.6h-27.9c-5.5,0-10,4.5-10,10v2.9c-16.3-1.4-21.6-4.5-36.5-13.1
			c-11.5-6.6-28.8-16.6-60.1-30.7c-0.1-0.1-0.3-0.1-0.4-0.2c-10.2-4-36.8-11.9-65.3,1l-40.2,14.4L186.2,23c-3.9-3.9-10.2-3.9-14.1,0
			L60.7,134.3c-3.6,3.6-4.3,9.9,0,14.1l190.3,190.3c3,3,10.2,4,14.1,0l101.7-101.7c2.6,0.2,5.4,0.4,8.2,0.4
			c26.1,0,49.2-17.9,62.5-37.5H530c5.5,0,10-4.5,10-10V63.9C540,58.4,535.5,53.9,530,53.9z M179.1,44.2L201.9,67
			c-6.8,4.2-14.6,6.4-22.8,6.4c-8.2,0-16-2.2-22.8-6.4L179.1,44.2z M104.7,164.2l-22.8-22.8l22.8-22.8c4.2,6.8,6.4,14.6,6.4,22.8
			C111.1,149.6,108.9,157.4,104.7,164.2z M258,317.5l-22.8-22.8c13.9-8.6,31.7-8.6,45.6,0L258,317.5z M295.2,280.3
			c-22.1-16-52.3-16-74.4,0L119.1,178.6c7.8-10.7,12-23.6,12-37.2c0-13.6-4.2-26.5-12-37.2l22.8-22.8c10.7,7.8,23.6,12,37.2,12
			c13.6,0,26.5-4.2,37.2-12l21.6,21.6c-4.7,0.7-9.2,2.2-13.5,4.6c-7.2,4-12.8,10-16.3,17.2c-11.3,2.1-21.7,7.6-29.9,15.7
			c-22.2,22.2-22.2,58.4,0,80.6c11.1,11.1,25.7,16.7,40.3,16.7c14.6,0,29.2-5.6,40.3-16.7c7.2-7.2,12.3-16.1,14.8-25.8l33.8,11.5
			c-3.8,17.6,0.1,36.1,10.6,50.7L295.2,280.3z M234.4,182c0.1,0,0.2,0.1,0.3,0.1l20,6.8c-1.5,6.8-4.9,13.1-10,18.1
			c-14.4,14.4-37.9,14.4-52.3,0c-14.4-14.4-14.4-37.9,0-52.3c3.5-3.5,7.6-6.2,12.1-8C206.3,162,217.4,175.7,234.4,182z M332.5,243.1
			c-3.9-6.3-6-13.5-6.4-20.8c4.8,3.5,10.6,6.9,17.6,9.5L332.5,243.1z M422.7,186c-9.5,15.5-27.9,31.4-47.7,31.4
			c-3.7,0-7.2-0.3-10.4-0.7c0,0,0,0,0,0c-21.6-3.1-33.2-15.4-37-20.3c-0.2-0.3-1.1-1.4-1.2-1.6c-1.2-2.1-3.1-3.8-5.5-4.6l-79.5-27
			c-12.7-4.8-19.4-15.6-16.3-26.5c0,0,0,0,0,0c0,0,0,0,0,0c1.4-5,4.7-9.1,9.2-11.7c4.5-2.5,9.7-3.1,14.7-1.8l89.6,28.4
			c5.3,1.7,10.9-1.2,12.6-6.5c1.7-5.3-1.2-10.9-6.5-12.6L273.2,110l-0.6-0.6c0,0,0,0,0,0l-36.9-36.9l31.7-11.4
			c0.1,0,0.2-0.1,0.3-0.1c0,0,0.1,0,0.1,0c0.1-0.1,0.3-0.1,0.4-0.2c21.4-9.9,41.8-4,49.8-0.8c30.2,13.6,46.3,22.9,58.1,29.7
			c16.4,9.4,24.2,14,46.5,15.8V186z M460.5,180h-17.9V92.5h17.9V180z M520,180h-39.5V73.9H520V180z"/>
	</g>
</g>
</svg>
