<?xml version="1.0" encoding="utf-8"?>
<!-- Generator: Adobe Illustrator 24.3.0, SVG Export Plug-In . SVG Version: 6.00 Build 0)  -->
<svg version="1.1" id="Icons" xmlns="http://www.w3.org/2000/svg" xmlns:xlink="http://www.w3.org/1999/xlink" x="0px" y="0px"
	 viewBox="0 0 512 512" style="enable-background:new 0 0 512 512;" xml:space="preserve">
<style type="text/css">
	.st0{stroke:#000000;stroke-width:17;stroke-miterlimit:10;}
</style>
<path class="st0" d="M390.2,257.1c-3.8,0-6.9-3.1-6.9-6.9c0-1.5,0.5-2.9,1.3-4.1l11.9-16.3c2.1-3.2,6.4-4.1,9.6-1.9
	c1.9,1.3,3.1,3.4,3.1,5.7v0.1c0,1.5-0.5,2.9-1.3,4.1l-12.1,16.5C394.5,256.1,392.4,257.1,390.2,257.1L390.2,257.1z"/>
<path class="st0" d="M165.6,407.5c-2.9,0-5.5-1.8-6.5-4.6l-50.7-142.4l-91.4-59c-3.2-2.1-4.1-6.4-2.1-9.6c1-1.6,2.7-2.7,4.6-3.1
	L490,104.5c3.8-0.7,7.4,1.8,8,5.6c0.3,1.9-0.1,3.8-1.2,5.3L436.8,198c-2.2,3.1-6.6,3.8-9.7,1.5c-3.1-2.2-3.8-6.6-1.5-9.7l49.9-68.7
	L39.3,199.4l78.6,50.7c1.3,0.8,2.3,2.1,2.8,3.5l38.6,108.4l1-69.8c0.1-3.8,3.2-6.9,7-6.8c1.3,0,2.6,0.4,3.7,1.1L296,368l18.9-26
	c2.2-3.1,6.6-3.8,9.7-1.5s3.8,6.6,1.5,9.7l-22.8,31.3c-2.2,3-6.3,3.7-9.4,1.7l-120.1-78.1l-1.4,95.6c0,3.3-2.5,6.2-5.8,6.7
	C166.3,407.5,166,407.5,165.6,407.5L165.6,407.5z"/>
<path class="st0" d="M349.3,313.4c-3.8,0-6.9-3.1-6.9-6.9c0-1.5,0.5-2.9,1.3-4.1l12.1-16.7c2.2-3.1,6.5-3.9,9.6-1.7s3.9,6.5,1.7,9.6
	c-0.1,0.1-0.1,0.1-0.2,0.2l-12.1,16.7C353.6,312.4,351.5,313.4,349.3,313.4L349.3,313.4z"/>
<path class="st0" d="M167.2,299.4c-3.8,0-6.9-3.1-6.9-6.9c0-2.5,1.4-4.8,3.5-6l240-134.1L116.5,262.5c-3.6,1.4-7.6-0.4-8.9-4
	c-1.4-3.6,0.4-7.6,4-8.9l377.2-144.6c3.6-1.4,7.6,0.4,8.9,4c1.2,3.2-0.1,6.8-3.1,8.5L170.5,298.5
	C169.5,299.1,168.3,299.4,167.2,299.4L167.2,299.4z"/>
<path class="st0" d="M165.6,407.6c-3.8,0-6.9-3.1-6.9-6.9c0-2.1,0.9-4.1,2.6-5.4l74.7-60.6c3-2.3,7.4-1.7,9.7,1.3
	c2.2,2.9,1.8,7-1,9.4L169.9,406C168.7,407,167.2,407.6,165.6,407.6L165.6,407.6z"/>
</svg>
